REM MD5 6ff5077088e28d5adb09a01a7f30fd47
FILE "Slim Jim (USA).bin" BINARY
  TRACK 01 MODE2/2352
    INDEX 01 00:00:00
  TRACK 02 AUDIO
    INDEX 00 30:39:34
    INDEX 01 30:41:34
  TRACK 03 AUDIO
    INDEX 00 32:21:71
    INDEX 01 32:23:71
REM LEADOUT 32:29:67
